<?xml version="1.0" encoding="iso-8859-1"?>
<!-- Generator: Adobe Illustrator 25.3.1, SVG Export Plug-In . SVG Version: 6.00 Build 0)  -->
<svg version="1.1" id="Layer_1" xmlns="http://www.w3.org/2000/svg" xmlns:xlink="http://www.w3.org/1999/xlink" x="0px" y="0px"
	 viewBox="0 0 525.294 364.118" style="enable-background:new 0 0 525.294 364.118;" xml:space="preserve">
<path style="fill:#FFFFFF;fill-opacity:0.25;" d="M60.706,173.932H17.269L55.777,43.969c-9.858,4.106-23.515,8.418-40.972,12.935
	l0.924-6.467c19.921-5.133,36.248-10.779,48.982-16.938c12.733-6.159,25.466-13.551,38.2-22.174h6.161L60.706,173.932z"/>
<path style="fill:#FFFFFF;fill-opacity:0.25;" d="M191.016,10.401c15.197,0,27.212,2.874,36.043,8.623
	c9.036,5.749,13.555,13.653,13.555,23.714c0,9.034-3.697,17.965-11.091,26.793c-7.393,8.623-16.019,16.425-25.877,23.406
	c-9.858,6.775-22.591,14.782-38.199,24.022c-2.465,1.437-6.675,4.003-12.631,7.699c-5.955,3.696-10.782,6.878-14.478,9.547
	c5.134,0,13.452,1.335,24.952,4.004c5.34,1.232,10.783,2.361,16.328,3.387c5.75,0.822,10.884,1.232,15.403,1.232
	c8.009,0,14.376-1.232,19.099-3.695c4.724-2.67,7.086-6.365,7.086-11.087c0-6.16-3.697-11.19-11.09-15.091l3.388-4.003
	c5.956,3.079,10.269,6.775,12.939,11.087c2.67,4.106,4.005,9.136,4.005,15.09c0,11.087-4.005,20.634-12.015,28.641
	c-8.009,8.007-19.921,12.011-35.735,12.011c-4.518,0-9.344-0.514-14.479-1.54c-5.134-0.821-10.166-1.745-15.095-2.772
	c-6.982-1.642-13.143-2.874-18.483-3.695c-5.134-0.822-10.679-1.232-16.635-1.232c-5.956,0-11.296,0.616-16.019,1.847
	c-4.724,1.027-10.269,2.875-16.635,5.544l1.54-6.467c6.983-5.544,12.733-9.855,17.251-12.935
	c17.251-12.729,32.141-24.33,44.669-34.8c12.527-10.677,23.72-22.687,33.578-36.033c9.858-13.551,14.787-26.793,14.787-39.728
	c0-8.007-2.054-14.167-6.161-18.478c-4.108-4.312-9.858-6.467-17.251-6.467c-8.01,0-16.122,2.361-24.337,7.083
	c-8.215,4.722-15.095,10.779-20.64,18.17c-5.34,7.391-8.01,14.885-8.01,22.482c0,5.133,1.335,8.931,4.005,11.395
	c2.875,2.258,7.496,3.388,13.863,3.388c5.339,0,10.063-0.924,14.17-2.772c4.313-2.053,9.037-5.338,14.171-9.855l3.697,4.312
	c-5.34,5.133-10.988,8.931-16.943,11.395c-5.956,2.258-11.707,3.388-17.252,3.388c-6.366,0-11.809-1.54-16.327-4.619
	c-4.518-3.08-6.777-8.521-6.777-16.322c0-9.034,3.388-17.965,10.166-26.793c6.777-8.828,16.019-16.014,27.725-21.558
	C163.188,13.173,176.434,10.401,191.016,10.401z"/>
<path style="fill:#FFFFFF;fill-opacity:0.25;" d="M304.998,186.559c19.1,0,33.989,5.03,44.669,15.09
	c10.679,9.855,16.019,23.508,16.019,40.96c0,18.272-5.032,36.135-15.095,53.586c-10.064,17.246-23.516,31.31-40.356,42.192
	c-16.635,10.676-34.606,16.014-53.911,16.014c-18.894,0-33.886-4.927-44.976-14.782c-10.885-10.061-16.327-23.919-16.327-41.576
	c0-18.273,5.031-36.032,15.095-53.279c10.268-17.246,23.823-31.207,40.663-41.883C267.62,191.999,285.693,186.559,304.998,186.559z
	 M300.069,192.102c-11.09,0-21.256,5.543-30.498,16.63c-9.242,10.882-16.533,25.048-21.872,42.5
	c-5.135,17.246-7.702,34.903-7.702,52.97c0,15.399,1.951,26.691,5.853,33.877c3.902,7.186,9.037,10.779,15.403,10.779
	c11.296,0,21.462-5.647,30.498-16.939c9.242-11.292,16.327-25.664,21.256-43.115c5.135-17.452,7.702-35.108,7.702-52.971
	c0-14.987-1.848-25.972-5.545-32.952C311.467,195.695,306.435,192.102,300.069,192.102z"/>
<path style="fill:#FFFFFF;fill-opacity:0.25;" d="M461.207,186.559c15.198,0,27.212,2.874,36.043,8.623
	c9.037,5.748,13.555,13.653,13.555,23.713c0,9.034-3.697,17.965-11.09,26.793c-7.394,8.623-16.019,16.425-25.877,23.406
	c-9.858,6.775-22.592,14.782-38.2,24.021c-2.465,1.438-6.675,4.004-12.631,7.7c-5.956,3.695-10.782,6.878-14.479,9.547
	c5.135,0,13.452,1.334,24.953,4.003c5.34,1.232,10.782,2.361,16.327,3.388c5.751,0.821,10.886,1.232,15.404,1.232
	c8.009,0,14.376-1.232,19.1-3.696c4.723-2.669,7.085-6.365,7.085-11.087c0-6.159-3.696-11.189-11.09-15.09l3.389-4.004
	c5.956,3.08,10.268,6.776,12.938,11.087c2.67,4.106,4.005,9.136,4.005,15.09c0,11.087-4.005,20.634-12.014,28.642
	c-8.01,8.007-19.922,12.01-35.736,12.01c-4.518,0-9.344-0.513-14.479-1.54c-5.134-0.821-10.166-1.745-15.095-2.771
	c-6.982-1.643-13.144-2.875-18.483-3.696c-5.135-0.821-10.68-1.232-16.636-1.232c-5.955,0-11.295,0.616-16.019,1.848
	c-4.723,1.027-10.268,2.874-16.635,5.543l1.54-6.467c6.983-5.543,12.734-9.855,17.252-12.935
	c17.251-12.729,32.141-24.329,44.668-34.8c12.528-10.676,23.721-22.687,33.579-36.032c9.858-13.551,14.787-26.793,14.787-39.728
	c0-8.007-2.054-14.166-6.161-18.478c-4.108-4.312-9.858-6.467-17.252-6.467c-8.009,0-16.121,2.361-24.336,7.083
	s-15.095,10.779-20.64,18.17c-5.34,7.391-8.01,14.885-8.01,22.482c0,5.132,1.335,8.931,4.005,11.394
	c2.875,2.259,7.496,3.388,13.862,3.388c5.34,0,10.064-0.924,14.171-2.772c4.313-2.053,9.037-5.338,14.171-9.855l3.697,4.312
	c-5.34,5.133-10.988,8.931-16.944,11.395c-5.955,2.258-11.706,3.387-17.251,3.387c-6.367,0-11.809-1.539-16.327-4.619
	c-4.518-3.08-6.777-8.521-6.777-16.322c0-9.034,3.388-17.965,10.165-26.794c6.778-8.828,16.02-16.014,27.726-21.557
	C433.379,189.33,446.625,186.559,461.207,186.559z"/>
<path style="fill:#FFFFFF;fill-opacity:0.25;" d="M295.321,88.009h10.166L136.67,314.673h-10.166L295.321,88.009z"/>
<g>
</g>
<g>
</g>
<g>
</g>
<g>
</g>
<g>
</g>
</svg>
